<svg id="Layer_1" data-name="Layer 1" xmlns="http://www.w3.org/2000/svg" viewBox="0 0 512 512">
    <defs>
        <style>.cls-1{fill:#141f38;}</style>
    </defs>
    <path class="cls-1" d="M319.32,64a113.91,113.91,0,0,0-5.42,89.6H112.29l6.38,25.6h208a114.95,114.95,0,0,0,165.05,27.88L482.3,243.2H134.62L141,268.8H475.65l-12.07,46.48a57.61,57.61,0,0,1-55.75,43.12H163.34l12.8,51.35c1-.06,2-.15,3.06-.15A51.24,51.24,0,0,1,228.71,448H347.28a51.2,51.2,0,1,1,0,25.6H228.71a51.16,51.16,0,1,1-77-55.93L54,25.6H12.8A12.8,12.8,0,0,1,12.8,0H64A12.79,12.79,0,0,1,76.42,9.71L90,64ZM512,115.2a89.6,89.6,0,1,1-89.6-89.6A89.7,89.7,0,0,1,512,115.2Zm-61.08,15.57c0-8.1-3.32-13.9-10.07-17.33,5.19-3.32,7.79-8.41,7.79-15.36,0-13.18-9.35-21.27-25.22-21.27-15.47,0-24.39,5.81-28.65,17.43-.94,2.6-.11,4.46,2.6,5.4l7.78,2.8c3,.83,4.15.31,5.39-2.7,2.08-5.5,4.77-7.68,11.94-7.68,6.12,0,9.14,2.6,9.14,7.68s-3.74,7.58-9.14,7.58h-6.12c-3.22,0-4.26,1-4.26,4.26V118c0,3.22,1,4.15,4.26,4.15h8.2q8.72,0,8.72,8.09c0,5.4-3.43,8.09-10.38,8.09-7.58,0-10.8-2.28-12.87-7.67-1.24-3-2.49-3.84-5.39-2.7l-7.78,2.81c-2.7.93-3.53,2.8-2.6,5.39,4.25,11.63,14,17.44,29.16,17.44C441.58,153.6,450.92,144.88,450.92,130.77Z" />
</svg>